<?xml version="1.0" encoding="utf-8"?>
<!-- Svg Vector Icons : http://www.onlinewebfonts.com/icon -->
<!DOCTYPE svg PUBLIC "-//W3C//DTD SVG 1.1//EN" "http://www.w3.org/Graphics/SVG/1.1/DTD/svg11.dtd">
<svg version="1.1" xmlns="http://www.w3.org/2000/svg" xmlns:xlink="http://www.w3.org/1999/xlink" x="0px" y="0px" viewBox="0 0 1000 1000" enable-background="new 0 0 1000 1000" xml:space="preserve">
<metadata> Svg Vector Icons : http://www.onlinewebfonts.com/icon </metadata>
<g><g transform="translate(0.000000,512.000000) scale(0.100000,-0.100000)"><path d="M4641.9,5002.8c-972.7-93.8-1826.7-639.5-2207.8-1413.1c-166.6-337-191.5-488.3-191.5-1175.7v-530.4l-44-17.2c-68.9-26.8-166.6-134-210.6-229.8c-30.6-68.9-40.2-126.4-40.2-270c0-172.3,5.7-197.2,107.2-480.6c132.1-369.6,185.7-476.8,293-582.1c151.3-151.3,329.4-204.9,518.9-155.1c49.8,13.4,59.4,9.6,80.4-36.4c59.4-130.2-1.9-576.4-111.1-810c-111.1-235.5-296.8-425.1-511.3-515.1l-72.8-30.6l76.6-26.8c174.3-63.2,448.1-120.6,620.4-132.1c300.6-19.1,559.1,55.5,781.2,224l101.5,76.6l111.1-93.8c137.9-120.7,394.4-294.9,536.1-365.7c409.8-204.9,681.7-195.3,1110.6,40.2c147.4,80.4,413.6,270,515.1,363.8l59.4,57.4l103.4-78.5c224-168.5,482.5-243.2,783.1-224c170.4,9.6,442.3,68.9,618.5,130.2l72.8,26.8l-128.3,65.1c-333.2,170.4-545.7,540-578.3,1007.2c-15.3,241.3-1.9,296.8,109.1,417.4c118.7,132.1,176.2,233.6,241.3,423.2c44.1,128.3,53.6,187.6,53.6,354.2c1.9,174.2-3.8,212.5-42.1,283.4c-49.8,93.8-145.5,162.8-212.6,151.3c-42.1-7.7-44-3.8-32.5,61.3c68.9,419.3,84.2,1028.3,30.6,1313.6c-74.7,405.9-241.3,716.1-526.6,982.3c-526.6,492.1-1382.5,702.7-2204,541.9c-817.6-158.9-1422.7-670.2-1595-1344.2c-88.1-340.8-99.6-854-30.6-1338.5c32.6-241.3,32.6-233.6,11.5-222.1c-7.7,5.8-44,90-78.5,187.7c-74.7,206.8-97.7,248.9-162.8,283.4l-47.9,24.9v448.1c0,639.5,55.5,859.7,314,1250.4c478.7,718.1,1298.2,1104.9,2261.4,1066.6c442.3-17.2,765.9-99.6,1135.5-291.1c453.8-233.6,790.8-570.6,1014.9-1014.9c153.2-302.5,162.8-363.8,170.4-1024.4c3.8-346.6,15.3-605.1,26.8-635.7c46-113,218.3-111.1,266.2,3.8c15.3,38.3,21.1,239.4,15.3,712.3l-7.6,656.8l-53.6,162.8C7311.2,4439.8,6068.4,5140.7,4641.9,5002.8z M6371,2852.5c147.4-147.4,254.7-308.3,373.4-553.4c88.1-181.9,93.8-204.9,93.8-346.6c0-164.7-34.5-430.8-105.3-794.6c-26.8-132.1-44-241.3-42.1-245.1c3.8-1.9,26.8,44.1,51.7,105.3c95.7,233.6,191.5,335.1,277.6,294.9c210.6-95.7,145.5-603.2-113-882.7c-45.9-47.9-124.5-172.3-174.2-277.6C6434.2-460.2,5896.1-1030.8,5363.8-1297c-199.1-99.6-331.3-128.3-469.1-99.6c-225.9,47.9-589.8,271.9-877,541.9c-149.4,137.9-402.1,421.3-390.6,432.7c3.8,3.8,72.8-28.7,155.1-70.8c176.2-91.9,404-178.1,605.1-227.9c78.5-19.2,168.5-44,197.2-55.5c30.6-11.5,147.4-21.1,260.4-21.1c256.6,0,350.4,38.3,419.3,172.3c51.7,105.3,53.6,170.4,3.8,268.1c-65.1,126.4-134,160.8-348.5,168.5c-262.3,11.5-346.6-3.8-423.2-78.5c-36.4-34.5-72.8-78.5-84.3-97.7c-19.2-36.4-24.9-36.4-170.4,15.3c-337,118.7-672.1,331.3-926.8,584c-101.5,101.5-130.2,143.6-139.8,204.9c-7.7,40.2-68.9,231.7-137.9,425.1c-68.9,191.5-124.5,361.9-124.5,375.3c0,15.3,23,40.2,49.8,59.4c93.8,61.3,185.7-23,294.9-268.1c32.6-74.7,55.5-109.2,49.8-76.6c-5.7,32.6-36.4,199.1-68.9,371.5c-30.6,172.3-57.4,327.4-57.4,346.6c0,42.1,141.7,203,208.7,239.3c38.3,19.2,162.8,28.7,444.2,36.4c427,9.6,727.6,46,1018.7,118.7c570.6,143.6,984.2,423.2,1254.2,844.4C6183.3,3032.4,6192.9,3030.5,6371,2852.5z"/><path d="M3104.3-1754.6c-57.4-19.1-342.7-105.3-633.8-189.6c-750.6-216.4-1110.6-360-1409.3-557.2c-222.1-147.5-312.1-243.2-400.2-430.8c-174.3-367.7-235.5-708.5-250.8-1392.1L398.7-4780H5000h4601.3l-11.5,455.7c-15.3,687.4-76.6,1026.3-250.9,1392.1c-88.1,187.6-178.1,283.4-400.2,430.8c-304.5,203-668.3,344.7-1516.5,589.7c-327.4,95.8-608.9,180-626.2,185.8c-28.7,11.5-34.5,3.8-34.5-38.3c0-107.2-95.7-524.7-170.4-739.1c-187.7-543.8-450-976.5-832.9-1372.9c-271.9-281.5-689.3-576.4-785.1-551.5c-95.7,23-463.4,291-656.8,476.8c-417.4,402.1-729.5,905.7-922.9,1487.8c-61.3,185.7-155.1,605.1-155.1,697C3238.4-1708.7,3242.2-1708.7,3104.3-1754.6z"/></g></g>
</svg>