<?xml version="1.0" encoding="utf-8"?>
<!-- Svg Vector Icons : http://www.onlinewebfonts.com/icon -->
<!DOCTYPE svg PUBLIC "-//W3C//DTD SVG 1.1//EN" "http://www.w3.org/Graphics/SVG/1.1/DTD/svg11.dtd">
<svg version="1.1" xmlns="http://www.w3.org/2000/svg" xmlns:xlink="http://www.w3.org/1999/xlink" x="0px" y="0px" viewBox="0 0 1000 1000" enable-background="new 0 0 1000 1000" xml:space="preserve">
<metadata> Svg Vector Icons : http://www.onlinewebfonts.com/icon </metadata>
<g><path d="M688.6,566.9l-76.3-19.1c32.2-28.6,58.5-68,76.1-111.1c24.6-5.4,47.2-25.9,50.9-71.1c3.5-42.5-9.5-61.5-26.9-69.8c-0.2-5.1-0.4-10-0.7-14.9c22.4-124.2-66.3-167.6-73.2-169.7c-11.6-17.6-89.9-124.4-232.1-37.7c-20.8,12.7-53.8,37.7-71.5,62.9c-21.2,26.6-36.6,65.2-42.9,120.9c-4.4,0.5-8.7,1.2-13.1,2.1c-1.2-27.3,0.4-107.9,51.4-165.2c37.7-42.3,95.1-63.8,170.3-63.8c75.4,0,133.9,21.7,173.9,64.3c65.7,70.1,59.8,174.7,59.7,175.8c-0.4,5.6,3.9,10.5,9.5,10.8c0.3,0,0.4,0,0.7,0c5.3,0,9.8-4.1,10.2-9.5c0.3-4.6,6.7-114.2-65.1-190.9c-44-47-107.5-70.9-188.8-70.9c-81.4,0-143.8,23.8-185.6,70.8c-61.1,68.7-57.8,163.7-56.1,185.8c-23.8,12.7-41,40.4-36.1,99.6c6.4,78.1,51.8,105.3,94.6,105.3c8.3,0,15.7-1.8,22.2-5.1c24.5,15.9,63.9,29.6,127,32.2c6.2,9.3,19.2,15.7,34.2,15.7c21,0,38-12.5,38-28c0-15.5-17-28-38-28c-17.1,0-31.6,8.3-36.4,19.7c-41.4-2-71-9-92.2-17.9c-28.9-38.9-42.7-104.9-42.7-142.6c0-14,0.4-26.9,1.3-39c133.7,4.5,213.2-49.6,256.6-96.5c55.9,55.7,75.8,131.2,82.5,167.2c-13,98.9-83.5,203.9-169.1,203.9c-36.8,0-70.9-19.4-98.7-49.4c-28.5-5.9-52.2-15.2-71-27.8c15.4,27.5,34.5,52.1,56.5,71.6L311,566.9C206.5,593,134,686.5,134,794.2v128.9c0,36.6,28.8,66.9,65.4,66.9h600.3c36.6,0,66.3-30.3,66.3-66.9V794.2C866,686.5,793.1,593,688.6,566.9z M657,601l-99.4,68l-30.3-77.4c13.7-2.6,26.9-7.1,39.6-13.2L657,601z M432.9,578.3c12.5,6,25.5,10.4,39,13L441.5,669l-99.4-68L432.9,578.3z M410.8,948.2H296.4V894c0-5.6-4.5-10.2-10.2-10.2c-5.6,0-10.2,4.6-10.2,10.2v54.1h-76.7c-14.1,0-24.8-10.9-24.8-25V794.2c0-87.4,57.7-163.4,141.6-186.6l125.5,86c1.3,13.1,12.2,23.9,26.3,24.3L410.8,948.2z M483.4,618.3l9.5-24.5c2.6,0.1,11.6,0.2,13.5,0.1l9.5,24.4H483.4z M825.4,923.1c0,14.1-11.6,25-25.7,25h-77V894c0-5.6-4.5-10.2-10.2-10.2c-5.6,0-10.2,4.6-10.2,10.2v54.1H588.1L531,718c13.9-0.4,24.8-11,26.3-24l126.1-86.3c83.8,23.1,142,99.2,142,186.6L825.4,923.1L825.4,923.1L825.4,923.1z"/></g>
</svg>